<svg width="322" height="78" viewBox="0 0 322 78" fill="none" xmlns="http://www.w3.org/2000/svg">
<g filter="url(#filter0_d)">
<line x1="32.8878" y1="3.0293" x2="33.1141" y2="57.4312" stroke="#3A90E5"/>
</g>
<g filter="url(#filter1_d)">
<line x1="32.9719" y1="3.34925" x2="58.7723" y2="30.6334" stroke="#3A90E5"/>
</g>
<g filter="url(#filter2_d)">
<line x1="62.6569" y1="26.0244" x2="81.792" y2="3.37015" stroke="#3A90E5"/>
</g>
<g filter="url(#filter3_d)">
<line x1="82.5" y1="3" x2="82.5" y2="57" stroke="#3A90E5"/>
</g>
<g filter="url(#filter4_d)">
<line x1="36.5" y1="70" x2="36.5" y2="49" stroke="#3A90E5"/>
</g>
<g filter="url(#filter5_d)">
<line x1="36.5" y1="41" x2="36.5" y2="20" stroke="#3A90E5"/>
</g>
<g filter="url(#filter6_d)">
<line x1="36.2846" y1="13.437" x2="58.7725" y2="37.2477" stroke="#3A90E5"/>
</g>
<g filter="url(#filter7_d)">
<line x1="62.6582" y1="32.6369" x2="77.8706" y2="14.7789" stroke="#3A90E5"/>
</g>
<g filter="url(#filter8_d)">
<line x1="77.5" y1="35" x2="77.5" y2="70" stroke="#3A90E5"/>
</g>
<g filter="url(#filter9_d)">
<line x1="77.5" y1="20" x2="77.5" y2="30" stroke="#3A90E5"/>
</g>
<g filter="url(#filter10_d)">
<line y1="-0.5" x2="13.0955" y2="-0.5" transform="matrix(-0.504649 -0.863324 0.928304 -0.371821 32.6086 63.2067)" stroke="#3A90E5"/>
</g>
<g filter="url(#filter11_d)">
<line x1="88.4325" y1="53.1904" x2="81.8627" y2="64.5191" stroke="#3A90E5"/>
</g>
<g filter="url(#filter12_d)">
<line x1="102" y1="36.5" x2="152" y2="36.5" stroke="#3A90E5"/>
</g>
<g filter="url(#filter13_d)">
<path d="M115.18 15.24L114.38 17.64L111.62 24.02H110.42L107.66 17.64L106.86 15.24H106.78L107.02 18.98V27H105.62V13H107.02L111.02 22.36L115.02 13H116.42V27H115.02V18.98L115.26 15.24H115.18ZM119.226 17.56L121.226 17H123.506C124.292 17 124.886 17.2133 125.286 17.64C125.699 18.0533 125.906 18.64 125.906 19.4V25.42L126.126 27L124.746 27.16L124.526 25.38L122.286 27H121.306C120.532 27 119.939 26.7933 119.526 26.38C119.112 25.9533 118.906 25.36 118.906 24.6V23.38C118.906 22.62 119.112 22.0333 119.526 21.62C119.939 21.1933 120.532 20.98 121.306 20.98H124.506V19.38C124.506 18.66 124.159 18.3 123.466 18.3H121.226L119.586 18.78L119.226 17.56ZM121.346 25.72H121.926L124.506 23.84V22.22H121.346C120.652 22.22 120.306 22.58 120.306 23.3V24.64C120.306 25.36 120.652 25.72 121.346 25.72ZM131.84 27.06C130.814 27.02 130.134 26.7933 129.8 26.38C129.48 25.9667 129.32 25.16 129.32 23.96V18.32H127.56V17.2L129.32 17V16.08L129.18 14.96L130.52 14.54L130.72 16.14V17H133.4V18.32H130.72V24.64C130.72 25.1333 130.78 25.4467 130.9 25.58C131.034 25.7 131.307 25.76 131.72 25.76L133.22 25.36L133.56 26.58L131.84 27.06ZM142.361 25.5L142.561 27L141.181 27.16L140.961 25.4V19.62C140.961 19.1267 140.875 18.7867 140.701 18.6C140.528 18.4 140.208 18.3 139.741 18.3H139.281L136.761 19.7V27H135.361V13.8L135.141 12.18L136.521 12L136.761 13.82V18.24L138.961 17H139.961C140.735 17 141.328 17.2133 141.741 17.64C142.155 18.0533 142.361 18.64 142.361 19.4V25.5ZM147.308 27C146.521 27 145.921 26.7933 145.508 26.38C145.108 25.9667 144.908 25.3733 144.908 24.6V19.4C144.908 18.64 145.108 18.0533 145.508 17.64C145.921 17.2133 146.521 17 147.308 17H149.208C149.994 17 150.588 17.2133 150.988 17.64C151.401 18.0533 151.608 18.64 151.608 19.4V21.48L150.508 22.46H146.308V24.64C146.308 25.36 146.654 25.72 147.348 25.72H149.448L151.068 25.24L151.428 26.46L149.448 27H147.308ZM146.308 19.38V21.18H149.928L150.208 20.96V19.38C150.208 18.66 149.861 18.3 149.168 18.3H147.348C146.654 18.3 146.308 18.66 146.308 19.38ZM153.897 18.62L153.697 17.04L155.057 16.86L155.297 18.7V24.64C155.297 25.36 155.643 25.72 156.337 25.72H156.917L159.497 24.04V17H160.897V25.42L161.097 27L159.737 27.16L159.517 25.58L157.277 27H156.297C155.51 27 154.91 26.7933 154.497 26.38C154.097 25.9667 153.897 25.3733 153.897 24.6V18.62ZM167.32 18.3H165.68C165.307 18.3 165.034 18.3933 164.86 18.58C164.687 18.7533 164.6 19.0667 164.6 19.52C164.6 19.64 164.614 19.7533 164.64 19.86C164.68 19.9533 164.747 20.0533 164.84 20.16C164.947 20.2533 165.02 20.32 165.06 20.36C165.114 20.4 166.227 21.12 168.4 22.52C169.067 22.9467 169.4 23.62 169.4 24.54C169.4 26.18 168.574 27 166.92 27H165.06L163.06 26.46L163.42 25.24L165.06 25.72H166.96C167.654 25.72 168 25.36 168 24.64C168 24.2267 167.967 23.9667 167.9 23.86C167.834 23.74 167.687 23.6067 167.46 23.46L164.56 21.56C164.054 21.2267 163.7 20.9133 163.5 20.62C163.3 20.3267 163.2 19.94 163.2 19.46C163.2 18.6733 163.4 18.0667 163.8 17.64C164.214 17.2133 164.814 17 165.6 17H167.32L169.3 17.56L168.96 18.78L167.32 18.3ZM186.02 15.24L185.22 17.64L182.46 24.02H181.26L178.5 17.64L177.7 15.24H177.62L177.86 18.98V27H176.46V13H177.86L181.86 22.36L185.86 13H187.26V27H185.86V18.98L186.1 15.24H186.02ZM190.066 17.56L192.066 17H194.346C195.132 17 195.726 17.2133 196.126 17.64C196.539 18.0533 196.746 18.64 196.746 19.4V25.42L196.966 27L195.586 27.16L195.366 25.38L193.126 27H192.146C191.372 27 190.779 26.7933 190.366 26.38C189.952 25.9533 189.746 25.36 189.746 24.6V23.38C189.746 22.62 189.952 22.0333 190.366 21.62C190.779 21.1933 191.372 20.98 192.146 20.98H195.346V19.38C195.346 18.66 194.999 18.3 194.306 18.3H192.066L190.426 18.78L190.066 17.56ZM192.186 25.72H192.766L195.346 23.84V22.22H192.186C191.492 22.22 191.146 22.58 191.146 23.3V24.64C191.146 25.36 191.492 25.72 192.186 25.72ZM201.66 30.32H203.76C204.2 30.32 204.513 30.2067 204.7 29.98C204.887 29.7533 204.98 29.3933 204.98 28.9V25.76L202.78 27H201.78C200.993 27 200.393 26.7933 199.98 26.38C199.58 25.9667 199.38 25.3733 199.38 24.6V19.2C199.38 18.44 199.58 17.8533 199.98 17.44C200.393 17.0133 200.993 16.8 201.78 16.8L206.38 17.24V28.9C206.38 30.7 205.46 31.6 203.62 31.6H201.66L199.66 31.06L200.02 29.84L201.66 30.32ZM202.44 25.72L204.98 24.28V18.36L201.82 18.1C201.127 18.1 200.78 18.46 200.78 19.18V24.64C200.78 25.36 201.127 25.72 201.82 25.72H202.44ZM209.089 17.56L211.089 17H213.369C214.156 17 214.749 17.2133 215.149 17.64C215.562 18.0533 215.769 18.64 215.769 19.4V25.42L215.989 27L214.609 27.16L214.389 25.38L212.149 27H211.169C210.396 27 209.802 26.7933 209.389 26.38C208.976 25.9533 208.769 25.36 208.769 24.6V23.38C208.769 22.62 208.976 22.0333 209.389 21.62C209.802 21.1933 210.396 20.98 211.169 20.98H214.369V19.38C214.369 18.66 214.022 18.3 213.329 18.3H211.089L209.449 18.78L209.089 17.56ZM211.209 25.72H211.789L214.369 23.84V22.22H211.209C210.516 22.22 210.169 22.58 210.169 23.3V24.64C210.169 25.36 210.516 25.72 211.209 25.72ZM220.004 13.82V24.96C220.017 25.2933 220.084 25.5267 220.204 25.66C220.337 25.78 220.55 25.84 220.844 25.84H221.164L222.464 25.48L222.564 26.74L221.164 27.12H220.804C219.99 27.12 219.417 26.9067 219.084 26.48C218.764 26.04 218.604 25.3733 218.604 24.48V13.8L218.384 12.18L219.764 12L220.004 13.82ZM231.326 25.5L231.526 27L230.146 27.16L229.926 25.4V19.62C229.926 19.1267 229.84 18.7867 229.666 18.6C229.493 18.4 229.173 18.3 228.706 18.3H228.246L225.726 19.7V27H224.326V13.8L224.106 12.18L225.486 12L225.726 13.82V18.24L227.926 17H228.926C229.7 17 230.293 17.2133 230.706 17.64C231.12 18.0533 231.326 18.64 231.326 19.4V25.5ZM233.952 17.56L235.952 17H238.232C239.019 17 239.612 17.2133 240.012 17.64C240.426 18.0533 240.632 18.64 240.632 19.4V25.42L240.852 27L239.472 27.16L239.252 25.38L237.012 27H236.032C235.259 27 234.666 26.7933 234.252 26.38C233.839 25.9533 233.632 25.36 233.632 24.6V23.38C233.632 22.62 233.839 22.0333 234.252 21.62C234.666 21.1933 235.259 20.98 236.032 20.98H239.232V19.38C239.232 18.66 238.886 18.3 238.192 18.3H235.952L234.312 18.78L233.952 17.56ZM236.072 25.72H236.652L239.232 23.84V22.22H236.072C235.379 22.22 235.032 22.58 235.032 23.3V24.64C235.032 25.36 235.379 25.72 236.072 25.72ZM238.792 15.14H238.412C238.092 15.14 237.779 15.0333 237.472 14.82L236.632 14.2C236.499 14.0933 236.332 14.04 236.132 14.04H235.952C235.766 14.04 235.632 14.0667 235.552 14.12C235.486 14.16 235.452 14.26 235.452 14.42V14.64L235.252 15.3L234.332 14.86L234.452 14.36V14.04C234.452 13.6 234.566 13.3 234.792 13.14C235.019 12.9667 235.359 12.88 235.812 12.88H236.252C236.559 12.88 236.852 12.9733 237.132 13.16C237.186 13.2 237.266 13.2667 237.372 13.36C237.492 13.44 237.572 13.5 237.612 13.54C237.666 13.5667 237.732 13.6133 237.812 13.68C237.906 13.7333 237.972 13.7733 238.012 13.8C238.052 13.8267 238.099 13.86 238.152 13.9C238.219 13.9267 238.272 13.9467 238.312 13.96C238.366 13.9733 238.412 13.98 238.452 13.98H238.652C238.839 13.98 238.966 13.96 239.032 13.92C239.112 13.8667 239.152 13.76 239.152 13.6V13.38L239.352 12.72L240.332 13L240.152 13.66V13.98C240.152 14.42 240.039 14.7267 239.812 14.9C239.586 15.06 239.246 15.14 238.792 15.14ZM245.667 27C244.88 27 244.28 26.7933 243.867 26.38C243.467 25.9667 243.267 25.3733 243.267 24.6V19.4C243.267 18.64 243.467 18.0533 243.867 17.64C244.28 17.2133 244.88 17 245.667 17H247.567C248.354 17 248.947 17.2133 249.347 17.64C249.76 18.0533 249.967 18.64 249.967 19.4V21.48L248.867 22.46H244.667V24.64C244.667 25.36 245.014 25.72 245.707 25.72H247.807L249.427 25.24L249.787 26.46L247.807 27H245.667ZM244.667 19.38V21.18H248.287L248.567 20.96V19.38C248.567 18.66 248.22 18.3 247.527 18.3H245.707C245.014 18.3 244.667 18.66 244.667 19.38ZM255.836 18.3H254.196C253.823 18.3 253.549 18.3933 253.376 18.58C253.203 18.7533 253.116 19.0667 253.116 19.52C253.116 19.64 253.129 19.7533 253.156 19.86C253.196 19.9533 253.263 20.0533 253.356 20.16C253.463 20.2533 253.536 20.32 253.576 20.36C253.629 20.4 254.743 21.12 256.916 22.52C257.583 22.9467 257.916 23.62 257.916 24.54C257.916 26.18 257.089 27 255.436 27H253.576L251.576 26.46L251.936 25.24L253.576 25.72H255.476C256.169 25.72 256.516 25.36 256.516 24.64C256.516 24.2267 256.483 23.9667 256.416 23.86C256.349 23.74 256.203 23.6067 255.976 23.46L253.076 21.56C252.569 21.2267 252.216 20.9133 252.016 20.62C251.816 20.3267 251.716 19.94 251.716 19.46C251.716 18.6733 251.916 18.0667 252.316 17.64C252.729 17.2133 253.329 17 254.116 17H255.836L257.816 17.56L257.476 18.78L255.836 18.3Z" fill="#3A90E5"/>
</g>
<g filter="url(#filter14_d)">
<path d="M105.296 48.8H110.016C110.645 48.8 111.12 48.9707 111.44 49.312C111.771 49.6427 111.936 50.112 111.936 50.72V58.08C111.936 58.6987 111.771 59.1733 111.44 59.504C111.12 59.8347 110.645 60 110.016 60H105.296V48.8ZM109.984 49.84H106.416V58.976H109.984C110.539 58.976 110.816 58.688 110.816 58.112V50.704C110.816 50.128 110.539 49.84 109.984 49.84ZM115.974 60C115.345 60 114.865 59.8347 114.534 59.504C114.214 59.1733 114.054 58.6987 114.054 58.08V53.92C114.054 53.312 114.214 52.8427 114.534 52.512C114.865 52.1707 115.345 52 115.974 52H117.494C118.123 52 118.598 52.1707 118.918 52.512C119.249 52.8427 119.414 53.312 119.414 53.92V55.584L118.534 56.368H115.174V58.112C115.174 58.688 115.451 58.976 116.006 58.976H117.686L118.982 58.592L119.27 59.568L117.686 60H115.974ZM115.174 53.904V55.344H118.07L118.294 55.168V53.904C118.294 53.328 118.017 53.04 117.462 53.04H116.006C115.451 53.04 115.174 53.328 115.174 53.904ZM124.109 53.04H122.797C122.499 53.04 122.28 53.1147 122.141 53.264C122.003 53.4027 121.933 53.6533 121.933 54.016C121.933 54.112 121.944 54.2027 121.965 54.288C121.997 54.3627 122.051 54.4427 122.125 54.528C122.211 54.6027 122.269 54.656 122.301 54.688C122.344 54.72 123.235 55.296 124.973 56.416C125.507 56.7573 125.773 57.296 125.773 58.032C125.773 59.344 125.112 60 123.789 60H122.301L120.701 59.568L120.989 58.592L122.301 58.976H123.821C124.376 58.976 124.653 58.688 124.653 58.112C124.653 57.7813 124.627 57.5733 124.573 57.488C124.52 57.392 124.403 57.2853 124.221 57.168L121.901 55.648C121.496 55.3813 121.213 55.1307 121.053 54.896C120.893 54.6613 120.813 54.352 120.813 53.968C120.813 53.3387 120.973 52.8533 121.293 52.512C121.624 52.1707 122.104 52 122.733 52H124.109L125.693 52.448L125.421 53.424L124.109 53.04ZM129.38 60C128.751 60 128.271 59.8347 127.94 59.504C127.62 59.1733 127.46 58.6987 127.46 58.08V53.92C127.46 53.312 127.62 52.8427 127.94 52.512C128.271 52.1707 128.751 52 129.38 52H130.9C131.53 52 132.004 52.1707 132.324 52.512C132.655 52.8427 132.82 53.312 132.82 53.92V55.584L131.94 56.368H128.58V58.112C128.58 58.688 128.858 58.976 129.412 58.976H131.092L132.388 58.592L132.676 59.568L131.092 60H129.38ZM128.58 53.904V55.344H131.476L131.7 55.168V53.904C131.7 53.328 131.423 53.04 130.868 53.04H129.412C128.858 53.04 128.58 53.328 128.58 53.904ZM140.252 58.784L140.412 60L139.308 60.128L139.132 58.72V53.904C139.132 53.328 138.854 53.04 138.3 53.04H137.788L135.772 54.16V60H134.652V53.328L134.492 52.032L135.58 51.888L135.724 53.024L137.532 52H138.332C138.95 52 139.425 52.1707 139.756 52.512C140.086 52.8427 140.252 53.312 140.252 53.92V58.784ZM147.391 53.296L145.263 60H144.175L141.647 52H142.767L144.287 56.96L144.687 58.656H144.751L145.135 56.96C145.647 55.2747 146.036 54.0107 146.303 53.168L146.463 51.888L147.551 52.032L147.391 53.296ZM152.671 53.04H150.975C150.42 53.04 150.143 53.328 150.143 53.904V58.112C150.143 58.688 150.42 58.976 150.975 58.976H152.671C153.226 58.976 153.503 58.688 153.503 58.112V53.904C153.503 53.328 153.226 53.04 152.671 53.04ZM152.703 60H150.943C150.314 60 149.834 59.8347 149.503 59.504C149.183 59.1733 149.023 58.6987 149.023 58.08V53.92C149.023 53.312 149.183 52.8427 149.503 52.512C149.834 52.1707 150.314 52 150.943 52H152.703C153.332 52 153.807 52.1707 154.127 52.512C154.458 52.8427 154.623 53.312 154.623 53.92V58.08C154.623 58.6987 154.458 59.1733 154.127 59.504C153.807 59.8347 153.332 60 152.703 60ZM157.85 49.456V58.368C157.86 58.6347 157.914 58.8213 158.01 58.928C158.116 59.024 158.287 59.072 158.522 59.072H158.778L159.818 58.784L159.898 59.792L158.778 60.096H158.49C157.839 60.096 157.38 59.9253 157.114 59.584C156.858 59.232 156.73 58.6987 156.73 57.984V49.44L156.554 48.144L157.658 48L157.85 49.456ZM166.172 53.296L164.044 60H162.956L160.428 52H161.548L163.068 56.96L163.468 58.656H163.532L163.916 56.96C164.428 55.2747 164.817 54.0107 165.084 53.168L165.244 51.888L166.332 52.032L166.172 53.296ZM169.724 60C169.095 60 168.615 59.8347 168.284 59.504C167.964 59.1733 167.804 58.6987 167.804 58.08V53.92C167.804 53.312 167.964 52.8427 168.284 52.512C168.615 52.1707 169.095 52 169.724 52H171.244C171.873 52 172.348 52.1707 172.668 52.512C172.999 52.8427 173.164 53.312 173.164 53.92V55.584L172.284 56.368H168.924V58.112C168.924 58.688 169.201 58.976 169.756 58.976H171.436L172.732 58.592L173.02 59.568L171.436 60H169.724ZM168.924 53.904V55.344H171.82L172.044 55.168V53.904C172.044 53.328 171.767 53.04 171.212 53.04H169.756C169.201 53.04 168.924 53.328 168.924 53.904ZM177.203 58.976L179.235 57.856V53.392L177.411 53.04H176.691C176.137 53.04 175.859 53.328 175.859 53.904V58.112C175.859 58.688 176.137 58.976 176.691 58.976H177.203ZM179.235 49.44L179.059 48.112L180.163 47.968L180.355 49.44V58.752L180.515 60.016L179.427 60.144L179.267 58.976L177.459 60H176.659C176.041 60 175.566 59.8347 175.235 59.504C174.905 59.1627 174.739 58.688 174.739 58.08V53.92C174.739 53.312 174.905 52.8427 175.235 52.512C175.566 52.1707 176.041 52 176.659 52H177.411L179.235 52.352V49.44ZM186.202 53.04H184.506C183.951 53.04 183.674 53.328 183.674 53.904V58.112C183.674 58.688 183.951 58.976 184.506 58.976H186.202C186.757 58.976 187.034 58.688 187.034 58.112V53.904C187.034 53.328 186.757 53.04 186.202 53.04ZM186.234 60H184.474C183.845 60 183.365 59.8347 183.034 59.504C182.714 59.1733 182.554 58.6987 182.554 58.08V53.92C182.554 53.312 182.714 52.8427 183.034 52.512C183.365 52.1707 183.845 52 184.474 52H186.234C186.863 52 187.338 52.1707 187.658 52.512C187.989 52.8427 188.154 53.312 188.154 53.92V58.08C188.154 58.6987 187.989 59.1733 187.658 59.504C187.338 59.8347 186.863 60 186.234 60ZM193.941 52V53.184L193.397 53.152L191.381 54.032V60H190.261V53.328L190.101 52.032L191.141 51.888L191.317 53.04L193.141 52H193.941ZM199.265 48.8H204.689V49.84H200.385V53.616H203.889V54.656H200.385V60H199.265V48.8ZM206.402 53.296L206.242 52.032L207.33 51.888L207.522 53.36V58.112C207.522 58.688 207.799 58.976 208.354 58.976H208.818L210.882 57.632V52H212.002V58.736L212.162 60L211.074 60.128L210.898 58.864L209.106 60H208.322C207.692 60 207.212 59.8347 206.882 59.504C206.562 59.1733 206.402 58.6987 206.402 58.08V53.296ZM215.397 49.456V58.368C215.407 58.6347 215.461 58.8213 215.557 58.928C215.663 59.024 215.834 59.072 216.069 59.072H216.325L217.365 58.784L217.445 59.792L216.325 60.096H216.037C215.386 60.096 214.927 59.9253 214.661 59.584C214.405 59.232 214.277 58.6987 214.277 57.984V49.44L214.101 48.144L215.205 48L215.397 49.456ZM219.975 49.456V58.368C219.985 58.6347 220.039 58.8213 220.135 58.928C220.241 59.024 220.412 59.072 220.647 59.072H220.903L221.943 58.784L222.023 59.792L220.903 60.096H220.615C219.964 60.096 219.505 59.9253 219.239 59.584C218.983 59.232 218.855 58.6987 218.855 57.984V49.44L218.679 48.144L219.783 48L219.975 49.456ZM228.457 56.128H223.513V55.152H228.457V56.128ZM231.88 60L230.296 59.568L230.568 58.592L231.88 58.976H234.792C235.069 58.976 235.288 58.896 235.448 58.736C235.619 58.5653 235.704 58.3307 235.704 58.032V57.152C235.704 56.8533 235.677 56.6453 235.624 56.528C235.571 56.4107 235.421 56.2667 235.176 56.096L231.352 53.424C230.733 52.9867 230.424 52.416 230.424 51.712V50.8C230.424 50.192 230.6 49.7067 230.952 49.344C231.315 48.9813 231.805 48.8 232.424 48.8H234.952L236.536 49.248L236.264 50.224L234.952 49.84H232.456C232.179 49.84 231.955 49.92 231.784 50.08C231.624 50.24 231.544 50.4747 231.544 50.784V51.584C231.544 51.8613 231.576 52.064 231.64 52.192C231.704 52.32 231.848 52.464 232.072 52.624L235.944 55.328C236.531 55.7333 236.824 56.2933 236.824 57.008V58C236.824 58.6187 236.648 59.1093 236.296 59.472C235.944 59.824 235.453 60 234.824 60H231.88ZM241.147 60.048C240.326 60.016 239.782 59.8347 239.515 59.504C239.259 59.1733 239.131 58.528 239.131 57.568V53.056H237.723V52.16L239.131 52V51.264L239.019 50.368L240.091 50.032L240.251 51.312V52H242.395V53.056H240.251V58.112C240.251 58.5067 240.299 58.7573 240.395 58.864C240.502 58.96 240.721 59.008 241.051 59.008L242.251 58.688L242.523 59.664L241.147 60.048ZM243.868 52.448L245.468 52H247.292C247.921 52 248.396 52.1707 248.716 52.512C249.047 52.8427 249.212 53.312 249.212 53.92V58.736L249.388 60L248.284 60.128L248.108 58.704L246.316 60H245.532C244.913 60 244.439 59.8347 244.108 59.504C243.777 59.1627 243.612 58.688 243.612 58.08V57.104C243.612 56.496 243.777 56.0267 244.108 55.696C244.439 55.3547 244.913 55.184 245.532 55.184H248.092V53.904C248.092 53.328 247.815 53.04 247.26 53.04H245.468L244.156 53.424L243.868 52.448ZM245.564 58.976H246.028L248.092 57.472V56.176H245.564C245.009 56.176 244.732 56.464 244.732 57.04V58.112C244.732 58.688 245.009 58.976 245.564 58.976ZM253.24 52H255L256.584 52.448L256.312 53.424L255 53.04H253.272C252.717 53.04 252.44 53.328 252.44 53.904V58.112C252.44 58.688 252.717 58.976 253.272 58.976H255.08L256.392 58.592L256.664 59.568L255.08 60H253.24C252.61 60 252.13 59.8347 251.8 59.504C251.48 59.1733 251.32 58.6987 251.32 58.08V53.92C251.32 53.312 251.48 52.8427 251.8 52.512C252.13 52.1707 252.61 52 253.24 52ZM258.12 49.456L257.944 48.144L259.048 48L259.24 49.456V55.248L260.456 54.928L261.784 53.104L262.472 51.872L263.672 52.032L262.904 53.296L261.128 55.696L263.976 60H262.68L260.12 56.144L259.24 56.384V60H258.12V49.456Z" fill="#3A90E5"/>
</g>
<g filter="url(#filter15_d)">
<line x1="20.334" y1="1.36646" x2="8.36647" y2="8.29505" stroke="#3A90E5" stroke-opacity="0.95" stroke-width="2" stroke-linecap="round"/>
</g>
<g filter="url(#filter16_d)">
<line x1="1" y1="-1" x2="15.0287" y2="-1" transform="matrix(0.86902 0.494777 0.507321 -0.861757 280.519 51)" stroke="#3A90E5" stroke-opacity="0.95" stroke-width="2" stroke-linecap="round"/>
</g>
<g filter="url(#filter17_d)">
<line x1="20.3058" y1="14.9604" x2="8.14039" y2="8.56028" stroke="#3A90E5" stroke-opacity="0.95" stroke-width="2" stroke-linecap="round"/>
</g>
<g filter="url(#filter18_d)">
<line x1="274.191" y1="65.3433" x2="276.597" y2="51.8095" stroke="#3A90E5" stroke-opacity="0.95" stroke-width="2" stroke-linecap="round"/>
</g>
<g filter="url(#filter19_d)">
<line x1="1" y1="-1" x2="14.9544" y2="-1" transform="matrix(0.88817 -0.459515 -0.471704 -0.881757 279.326 65.541)" stroke="#3A90E5" stroke-opacity="0.95" stroke-width="2" stroke-linecap="round"/>
</g>
<defs>
<filter id="filter0_d" x="28.3878" y="3.02722" width="9.22626" height="62.406" filterUnits="userSpaceOnUse" color-interpolation-filters="sRGB">
<feFlood flood-opacity="0" result="BackgroundImageFix"/>
<feColorMatrix in="SourceAlpha" type="matrix" values="0 0 0 0 0 0 0 0 0 0 0 0 0 0 0 0 0 0 127 0"/>
<feOffset dy="4"/>
<feGaussianBlur stdDeviation="2"/>
<feColorMatrix type="matrix" values="0 0 0 0 0 0 0 0 0 0 0 0 0 0 0 0 0 0 1 0"/>
<feBlend mode="normal" in2="BackgroundImageFix" result="effect1_dropShadow"/>
<feBlend mode="normal" in="SourceGraphic" in2="effect1_dropShadow" result="shape"/>
</filter>
<filter id="filter1_d" x="28.6086" y="3.00571" width="34.527" height="35.9712" filterUnits="userSpaceOnUse" color-interpolation-filters="sRGB">
<feFlood flood-opacity="0" result="BackgroundImageFix"/>
<feColorMatrix in="SourceAlpha" type="matrix" values="0 0 0 0 0 0 0 0 0 0 0 0 0 0 0 0 0 0 127 0"/>
<feOffset dy="4"/>
<feGaussianBlur stdDeviation="2"/>
<feColorMatrix type="matrix" values="0 0 0 0 0 0 0 0 0 0 0 0 0 0 0 0 0 0 1 0"/>
<feBlend mode="normal" in2="BackgroundImageFix" result="effect1_dropShadow"/>
<feBlend mode="normal" in="SourceGraphic" in2="effect1_dropShadow" result="shape"/>
</filter>
<filter id="filter2_d" x="58.2749" y="3.04751" width="27.8991" height="31.2995" filterUnits="userSpaceOnUse" color-interpolation-filters="sRGB">
<feFlood flood-opacity="0" result="BackgroundImageFix"/>
<feColorMatrix in="SourceAlpha" type="matrix" values="0 0 0 0 0 0 0 0 0 0 0 0 0 0 0 0 0 0 127 0"/>
<feOffset dy="4"/>
<feGaussianBlur stdDeviation="2"/>
<feColorMatrix type="matrix" values="0 0 0 0 0 0 0 0 0 0 0 0 0 0 0 0 0 0 1 0"/>
<feBlend mode="normal" in2="BackgroundImageFix" result="effect1_dropShadow"/>
<feBlend mode="normal" in="SourceGraphic" in2="effect1_dropShadow" result="shape"/>
</filter>
<filter id="filter3_d" x="78" y="3" width="9" height="62" filterUnits="userSpaceOnUse" color-interpolation-filters="sRGB">
<feFlood flood-opacity="0" result="BackgroundImageFix"/>
<feColorMatrix in="SourceAlpha" type="matrix" values="0 0 0 0 0 0 0 0 0 0 0 0 0 0 0 0 0 0 127 0"/>
<feOffset dy="4"/>
<feGaussianBlur stdDeviation="2"/>
<feColorMatrix type="matrix" values="0 0 0 0 0 0 0 0 0 0 0 0 0 0 0 0 0 0 1 0"/>
<feBlend mode="normal" in2="BackgroundImageFix" result="effect1_dropShadow"/>
<feBlend mode="normal" in="SourceGraphic" in2="effect1_dropShadow" result="shape"/>
</filter>
<filter id="filter4_d" x="32" y="49" width="9" height="29" filterUnits="userSpaceOnUse" color-interpolation-filters="sRGB">
<feFlood flood-opacity="0" result="BackgroundImageFix"/>
<feColorMatrix in="SourceAlpha" type="matrix" values="0 0 0 0 0 0 0 0 0 0 0 0 0 0 0 0 0 0 127 0"/>
<feOffset dy="4"/>
<feGaussianBlur stdDeviation="2"/>
<feColorMatrix type="matrix" values="0 0 0 0 0 0 0 0 0 0 0 0 0 0 0 0 0 0 1 0"/>
<feBlend mode="normal" in2="BackgroundImageFix" result="effect1_dropShadow"/>
<feBlend mode="normal" in="SourceGraphic" in2="effect1_dropShadow" result="shape"/>
</filter>
<filter id="filter5_d" x="32" y="20" width="9" height="29" filterUnits="userSpaceOnUse" color-interpolation-filters="sRGB">
<feFlood flood-opacity="0" result="BackgroundImageFix"/>
<feColorMatrix in="SourceAlpha" type="matrix" values="0 0 0 0 0 0 0 0 0 0 0 0 0 0 0 0 0 0 127 0"/>
<feOffset dy="4"/>
<feGaussianBlur stdDeviation="2"/>
<feColorMatrix type="matrix" values="0 0 0 0 0 0 0 0 0 0 0 0 0 0 0 0 0 0 1 0"/>
<feBlend mode="normal" in2="BackgroundImageFix" result="effect1_dropShadow"/>
<feBlend mode="normal" in="SourceGraphic" in2="effect1_dropShadow" result="shape"/>
</filter>
<filter id="filter6_d" x="31.9211" y="13.0937" width="31.2149" height="32.4973" filterUnits="userSpaceOnUse" color-interpolation-filters="sRGB">
<feFlood flood-opacity="0" result="BackgroundImageFix"/>
<feColorMatrix in="SourceAlpha" type="matrix" values="0 0 0 0 0 0 0 0 0 0 0 0 0 0 0 0 0 0 127 0"/>
<feOffset dy="4"/>
<feGaussianBlur stdDeviation="2"/>
<feColorMatrix type="matrix" values="0 0 0 0 0 0 0 0 0 0 0 0 0 0 0 0 0 0 1 0"/>
<feBlend mode="normal" in2="BackgroundImageFix" result="effect1_dropShadow"/>
<feBlend mode="normal" in="SourceGraphic" in2="effect1_dropShadow" result="shape"/>
</filter>
<filter id="filter7_d" x="58.2776" y="14.4547" width="23.9736" height="26.5065" filterUnits="userSpaceOnUse" color-interpolation-filters="sRGB">
<feFlood flood-opacity="0" result="BackgroundImageFix"/>
<feColorMatrix in="SourceAlpha" type="matrix" values="0 0 0 0 0 0 0 0 0 0 0 0 0 0 0 0 0 0 127 0"/>
<feOffset dy="4"/>
<feGaussianBlur stdDeviation="2"/>
<feColorMatrix type="matrix" values="0 0 0 0 0 0 0 0 0 0 0 0 0 0 0 0 0 0 1 0"/>
<feBlend mode="normal" in2="BackgroundImageFix" result="effect1_dropShadow"/>
<feBlend mode="normal" in="SourceGraphic" in2="effect1_dropShadow" result="shape"/>
</filter>
<filter id="filter8_d" x="73" y="35" width="9" height="43" filterUnits="userSpaceOnUse" color-interpolation-filters="sRGB">
<feFlood flood-opacity="0" result="BackgroundImageFix"/>
<feColorMatrix in="SourceAlpha" type="matrix" values="0 0 0 0 0 0 0 0 0 0 0 0 0 0 0 0 0 0 127 0"/>
<feOffset dy="4"/>
<feGaussianBlur stdDeviation="2"/>
<feColorMatrix type="matrix" values="0 0 0 0 0 0 0 0 0 0 0 0 0 0 0 0 0 0 1 0"/>
<feBlend mode="normal" in2="BackgroundImageFix" result="effect1_dropShadow"/>
<feBlend mode="normal" in="SourceGraphic" in2="effect1_dropShadow" result="shape"/>
</filter>
<filter id="filter9_d" x="73" y="20" width="9" height="18" filterUnits="userSpaceOnUse" color-interpolation-filters="sRGB">
<feFlood flood-opacity="0" result="BackgroundImageFix"/>
<feColorMatrix in="SourceAlpha" type="matrix" values="0 0 0 0 0 0 0 0 0 0 0 0 0 0 0 0 0 0 127 0"/>
<feOffset dy="4"/>
<feGaussianBlur stdDeviation="2"/>
<feColorMatrix type="matrix" values="0 0 0 0 0 0 0 0 0 0 0 0 0 0 0 0 0 0 1 0"/>
<feBlend mode="normal" in2="BackgroundImageFix" result="effect1_dropShadow"/>
<feBlend mode="normal" in="SourceGraphic" in2="effect1_dropShadow" result="shape"/>
</filter>
<filter id="filter10_d" x="21.0717" y="51.901" width="15.5369" height="19.6775" filterUnits="userSpaceOnUse" color-interpolation-filters="sRGB">
<feFlood flood-opacity="0" result="BackgroundImageFix"/>
<feColorMatrix in="SourceAlpha" type="matrix" values="0 0 0 0 0 0 0 0 0 0 0 0 0 0 0 0 0 0 127 0"/>
<feOffset dy="4"/>
<feGaussianBlur stdDeviation="2"/>
<feColorMatrix type="matrix" values="0 0 0 0 0 0 0 0 0 0 0 0 0 0 0 0 0 0 1 0"/>
<feBlend mode="normal" in2="BackgroundImageFix" result="effect1_dropShadow"/>
<feBlend mode="normal" in="SourceGraphic" in2="effect1_dropShadow" result="shape"/>
</filter>
<filter id="filter11_d" x="77.4302" y="52.9395" width="15.4349" height="19.8304" filterUnits="userSpaceOnUse" color-interpolation-filters="sRGB">
<feFlood flood-opacity="0" result="BackgroundImageFix"/>
<feColorMatrix in="SourceAlpha" type="matrix" values="0 0 0 0 0 0 0 0 0 0 0 0 0 0 0 0 0 0 127 0"/>
<feOffset dy="4"/>
<feGaussianBlur stdDeviation="2"/>
<feColorMatrix type="matrix" values="0 0 0 0 0 0 0 0 0 0 0 0 0 0 0 0 0 0 1 0"/>
<feBlend mode="normal" in2="BackgroundImageFix" result="effect1_dropShadow"/>
<feBlend mode="normal" in="SourceGraphic" in2="effect1_dropShadow" result="shape"/>
</filter>
<filter id="filter12_d" x="98" y="36" width="58" height="9" filterUnits="userSpaceOnUse" color-interpolation-filters="sRGB">
<feFlood flood-opacity="0" result="BackgroundImageFix"/>
<feColorMatrix in="SourceAlpha" type="matrix" values="0 0 0 0 0 0 0 0 0 0 0 0 0 0 0 0 0 0 127 0"/>
<feOffset dy="4"/>
<feGaussianBlur stdDeviation="2"/>
<feColorMatrix type="matrix" values="0 0 0 0 0 0 0 0 0 0 0 0 0 0 0 0 0 0 1 0"/>
<feBlend mode="normal" in2="BackgroundImageFix" result="effect1_dropShadow"/>
<feBlend mode="normal" in="SourceGraphic" in2="effect1_dropShadow" result="shape"/>
</filter>
<filter id="filter13_d" x="101.62" y="12" width="160.296" height="27.6" filterUnits="userSpaceOnUse" color-interpolation-filters="sRGB">
<feFlood flood-opacity="0" result="BackgroundImageFix"/>
<feColorMatrix in="SourceAlpha" type="matrix" values="0 0 0 0 0 0 0 0 0 0 0 0 0 0 0 0 0 0 127 0"/>
<feOffset dy="4"/>
<feGaussianBlur stdDeviation="2"/>
<feColorMatrix type="matrix" values="0 0 0 0 0 0 0 0 0 0 0 0 0 0 0 0 0 0 1 0"/>
<feBlend mode="normal" in2="BackgroundImageFix" result="effect1_dropShadow"/>
<feBlend mode="normal" in="SourceGraphic" in2="effect1_dropShadow" result="shape"/>
</filter>
<filter id="filter14_d" x="101.296" y="47.968" width="166.68" height="20.176" filterUnits="userSpaceOnUse" color-interpolation-filters="sRGB">
<feFlood flood-opacity="0" result="BackgroundImageFix"/>
<feColorMatrix in="SourceAlpha" type="matrix" values="0 0 0 0 0 0 0 0 0 0 0 0 0 0 0 0 0 0 127 0"/>
<feOffset dy="4"/>
<feGaussianBlur stdDeviation="2"/>
<feColorMatrix type="matrix" values="0 0 0 0 0 0 0 0 0 0 0 0 0 0 0 0 0 0 1 0"/>
<feBlend mode="normal" in2="BackgroundImageFix" result="effect1_dropShadow"/>
<feBlend mode="normal" in="SourceGraphic" in2="effect1_dropShadow" result="shape"/>
</filter>
<filter id="filter15_d" x="3" y="0" width="22.7005" height="17.6615" filterUnits="userSpaceOnUse" color-interpolation-filters="sRGB">
<feFlood flood-opacity="0" result="BackgroundImageFix"/>
<feColorMatrix in="SourceAlpha" type="matrix" values="0 0 0 0 0 0 0 0 0 0 0 0 0 0 0 0 0 0 127 0"/>
<feOffset dy="4"/>
<feGaussianBlur stdDeviation="2"/>
<feColorMatrix type="matrix" values="0 0 0 0 0 0 0 0 0 0 0 0 0 0 0 0 0 0 1 0"/>
<feBlend mode="normal" in2="BackgroundImageFix" result="effect1_dropShadow"/>
<feBlend mode="normal" in="SourceGraphic" in2="effect1_dropShadow" result="shape"/>
</filter>
<filter id="filter16_d" x="275.874" y="51.3627" width="22.2041" height="16.9288" filterUnits="userSpaceOnUse" color-interpolation-filters="sRGB">
<feFlood flood-opacity="0" result="BackgroundImageFix"/>
<feColorMatrix in="SourceAlpha" type="matrix" values="0 0 0 0 0 0 0 0 0 0 0 0 0 0 0 0 0 0 127 0"/>
<feOffset dy="4"/>
<feGaussianBlur stdDeviation="2"/>
<feColorMatrix type="matrix" values="0 0 0 0 0 0 0 0 0 0 0 0 0 0 0 0 0 0 1 0"/>
<feBlend mode="normal" in2="BackgroundImageFix" result="effect1_dropShadow"/>
<feBlend mode="normal" in="SourceGraphic" in2="effect1_dropShadow" result="shape"/>
</filter>
<filter id="filter17_d" x="2.78979" y="7.20969" width="22.8666" height="17.1013" filterUnits="userSpaceOnUse" color-interpolation-filters="sRGB">
<feFlood flood-opacity="0" result="BackgroundImageFix"/>
<feColorMatrix in="SourceAlpha" type="matrix" values="0 0 0 0 0 0 0 0 0 0 0 0 0 0 0 0 0 0 127 0"/>
<feOffset dy="4"/>
<feGaussianBlur stdDeviation="2"/>
<feColorMatrix type="matrix" values="0 0 0 0 0 0 0 0 0 0 0 0 0 0 0 0 0 0 1 0"/>
<feBlend mode="normal" in2="BackgroundImageFix" result="effect1_dropShadow"/>
<feBlend mode="normal" in="SourceGraphic" in2="effect1_dropShadow" result="shape"/>
</filter>
<filter id="filter18_d" x="269.031" y="50.6498" width="12.726" height="23.8531" filterUnits="userSpaceOnUse" color-interpolation-filters="sRGB">
<feFlood flood-opacity="0" result="BackgroundImageFix"/>
<feColorMatrix in="SourceAlpha" type="matrix" values="0 0 0 0 0 0 0 0 0 0 0 0 0 0 0 0 0 0 127 0"/>
<feOffset dy="4"/>
<feGaussianBlur stdDeviation="2"/>
<feColorMatrix type="matrix" values="0 0 0 0 0 0 0 0 0 0 0 0 0 0 0 0 0 0 1 0"/>
<feBlend mode="normal" in2="BackgroundImageFix" result="effect1_dropShadow"/>
<feBlend mode="normal" in="SourceGraphic" in2="effect1_dropShadow" result="shape"/>
</filter>
<filter id="filter19_d" x="275.68" y="58.5564" width="22.4056" height="16.4013" filterUnits="userSpaceOnUse" color-interpolation-filters="sRGB">
<feFlood flood-opacity="0" result="BackgroundImageFix"/>
<feColorMatrix in="SourceAlpha" type="matrix" values="0 0 0 0 0 0 0 0 0 0 0 0 0 0 0 0 0 0 127 0"/>
<feOffset dy="4"/>
<feGaussianBlur stdDeviation="2"/>
<feColorMatrix type="matrix" values="0 0 0 0 0 0 0 0 0 0 0 0 0 0 0 0 0 0 1 0"/>
<feBlend mode="normal" in2="BackgroundImageFix" result="effect1_dropShadow"/>
<feBlend mode="normal" in="SourceGraphic" in2="effect1_dropShadow" result="shape"/>
</filter>
</defs>
</svg>
