<svg width="327" height="78" viewBox="0 0 327 78" fill="none" xmlns="http://www.w3.org/2000/svg">
<g filter="url(#filter0_d)">
<line x1="37.8878" y1="3.0293" x2="38.1141" y2="57.4312" stroke="#4361EE"/>
</g>
<g filter="url(#filter1_d)">
<line x1="37.9719" y1="3.34925" x2="63.7723" y2="30.6334" stroke="#4361EE"/>
</g>
<g filter="url(#filter2_d)">
<line x1="67.6569" y1="26.0244" x2="86.792" y2="3.37015" stroke="#4361EE"/>
</g>
<g filter="url(#filter3_d)">
<line x1="87.5" y1="3" x2="87.5" y2="57" stroke="#4361EE"/>
</g>
<g filter="url(#filter4_d)">
<line x1="41.5" y1="70" x2="41.5" y2="49" stroke="#4361EE"/>
</g>
<g filter="url(#filter5_d)">
<line x1="41.5" y1="41" x2="41.5" y2="20" stroke="#4361EE"/>
</g>
<g filter="url(#filter6_d)">
<line x1="41.2846" y1="13.437" x2="63.7725" y2="37.2477" stroke="#4361EE"/>
</g>
<g filter="url(#filter7_d)">
<line x1="67.6582" y1="32.6369" x2="82.8706" y2="14.7789" stroke="#4361EE"/>
</g>
<g filter="url(#filter8_d)">
<line x1="82.5" y1="35" x2="82.5" y2="70" stroke="#4361EE"/>
</g>
<g filter="url(#filter9_d)">
<line x1="82.5" y1="20" x2="82.5" y2="30" stroke="#4361EE"/>
</g>
<g filter="url(#filter10_d)">
<line y1="-0.5" x2="13.0955" y2="-0.5" transform="matrix(-0.504649 -0.863324 0.928304 -0.371821 37.6086 63.2067)" stroke="#4361EE"/>
</g>
<g filter="url(#filter11_d)">
<line x1="93.4325" y1="53.1904" x2="86.8627" y2="64.5191" stroke="#4361EE"/>
</g>
<g filter="url(#filter12_d)">
<line x1="107" y1="36.5" x2="157" y2="36.5" stroke="#4361EE"/>
</g>
<g filter="url(#filter13_d)">
<path d="M120.18 15.24L119.38 17.64L116.62 24.02H115.42L112.66 17.64L111.86 15.24H111.78L112.02 18.98V27H110.62V13H112.02L116.02 22.36L120.02 13H121.42V27H120.02V18.98L120.26 15.24H120.18ZM124.226 17.56L126.226 17H128.506C129.292 17 129.886 17.2133 130.286 17.64C130.699 18.0533 130.906 18.64 130.906 19.4V25.42L131.126 27L129.746 27.16L129.526 25.38L127.286 27H126.306C125.532 27 124.939 26.7933 124.526 26.38C124.112 25.9533 123.906 25.36 123.906 24.6V23.38C123.906 22.62 124.112 22.0333 124.526 21.62C124.939 21.1933 125.532 20.98 126.306 20.98H129.506V19.38C129.506 18.66 129.159 18.3 128.466 18.3H126.226L124.586 18.78L124.226 17.56ZM126.346 25.72H126.926L129.506 23.84V22.22H126.346C125.652 22.22 125.306 22.58 125.306 23.3V24.64C125.306 25.36 125.652 25.72 126.346 25.72ZM136.84 27.06C135.814 27.02 135.134 26.7933 134.8 26.38C134.48 25.9667 134.32 25.16 134.32 23.96V18.32H132.56V17.2L134.32 17V16.08L134.18 14.96L135.52 14.54L135.72 16.14V17H138.4V18.32H135.72V24.64C135.72 25.1333 135.78 25.4467 135.9 25.58C136.034 25.7 136.307 25.76 136.72 25.76L138.22 25.36L138.56 26.58L136.84 27.06ZM147.361 25.5L147.561 27L146.181 27.16L145.961 25.4V19.62C145.961 19.1267 145.875 18.7867 145.701 18.6C145.528 18.4 145.208 18.3 144.741 18.3H144.281L141.761 19.7V27H140.361V13.8L140.141 12.18L141.521 12L141.761 13.82V18.24L143.961 17H144.961C145.735 17 146.328 17.2133 146.741 17.64C147.155 18.0533 147.361 18.64 147.361 19.4V25.5ZM152.308 27C151.521 27 150.921 26.7933 150.508 26.38C150.108 25.9667 149.908 25.3733 149.908 24.6V19.4C149.908 18.64 150.108 18.0533 150.508 17.64C150.921 17.2133 151.521 17 152.308 17H154.208C154.994 17 155.588 17.2133 155.988 17.64C156.401 18.0533 156.608 18.64 156.608 19.4V21.48L155.508 22.46H151.308V24.64C151.308 25.36 151.654 25.72 152.348 25.72H154.448L156.068 25.24L156.428 26.46L154.448 27H152.308ZM151.308 19.38V21.18H154.928L155.208 20.96V19.38C155.208 18.66 154.861 18.3 154.168 18.3H152.348C151.654 18.3 151.308 18.66 151.308 19.38ZM158.897 18.62L158.697 17.04L160.057 16.86L160.297 18.7V24.64C160.297 25.36 160.643 25.72 161.337 25.72H161.917L164.497 24.04V17H165.897V25.42L166.097 27L164.737 27.16L164.517 25.58L162.277 27H161.297C160.51 27 159.91 26.7933 159.497 26.38C159.097 25.9667 158.897 25.3733 158.897 24.6V18.62ZM172.32 18.3H170.68C170.307 18.3 170.034 18.3933 169.86 18.58C169.687 18.7533 169.6 19.0667 169.6 19.52C169.6 19.64 169.614 19.7533 169.64 19.86C169.68 19.9533 169.747 20.0533 169.84 20.16C169.947 20.2533 170.02 20.32 170.06 20.36C170.114 20.4 171.227 21.12 173.4 22.52C174.067 22.9467 174.4 23.62 174.4 24.54C174.4 26.18 173.574 27 171.92 27H170.06L168.06 26.46L168.42 25.24L170.06 25.72H171.96C172.654 25.72 173 25.36 173 24.64C173 24.2267 172.967 23.9667 172.9 23.86C172.834 23.74 172.687 23.6067 172.46 23.46L169.56 21.56C169.054 21.2267 168.7 20.9133 168.5 20.62C168.3 20.3267 168.2 19.94 168.2 19.46C168.2 18.6733 168.4 18.0667 168.8 17.64C169.214 17.2133 169.814 17 170.6 17H172.32L174.3 17.56L173.96 18.78L172.32 18.3ZM191.02 15.24L190.22 17.64L187.46 24.02H186.26L183.5 17.64L182.7 15.24H182.62L182.86 18.98V27H181.46V13H182.86L186.86 22.36L190.86 13H192.26V27H190.86V18.98L191.1 15.24H191.02ZM195.066 17.56L197.066 17H199.346C200.132 17 200.726 17.2133 201.126 17.64C201.539 18.0533 201.746 18.64 201.746 19.4V25.42L201.966 27L200.586 27.16L200.366 25.38L198.126 27H197.146C196.372 27 195.779 26.7933 195.366 26.38C194.952 25.9533 194.746 25.36 194.746 24.6V23.38C194.746 22.62 194.952 22.0333 195.366 21.62C195.779 21.1933 196.372 20.98 197.146 20.98H200.346V19.38C200.346 18.66 199.999 18.3 199.306 18.3H197.066L195.426 18.78L195.066 17.56ZM197.186 25.72H197.766L200.346 23.84V22.22H197.186C196.492 22.22 196.146 22.58 196.146 23.3V24.64C196.146 25.36 196.492 25.72 197.186 25.72ZM206.66 30.32H208.76C209.2 30.32 209.513 30.2067 209.7 29.98C209.887 29.7533 209.98 29.3933 209.98 28.9V25.76L207.78 27H206.78C205.993 27 205.393 26.7933 204.98 26.38C204.58 25.9667 204.38 25.3733 204.38 24.6V19.2C204.38 18.44 204.58 17.8533 204.98 17.44C205.393 17.0133 205.993 16.8 206.78 16.8L211.38 17.24V28.9C211.38 30.7 210.46 31.6 208.62 31.6H206.66L204.66 31.06L205.02 29.84L206.66 30.32ZM207.44 25.72L209.98 24.28V18.36L206.82 18.1C206.127 18.1 205.78 18.46 205.78 19.18V24.64C205.78 25.36 206.127 25.72 206.82 25.72H207.44ZM214.089 17.56L216.089 17H218.369C219.156 17 219.749 17.2133 220.149 17.64C220.562 18.0533 220.769 18.64 220.769 19.4V25.42L220.989 27L219.609 27.16L219.389 25.38L217.149 27H216.169C215.396 27 214.802 26.7933 214.389 26.38C213.976 25.9533 213.769 25.36 213.769 24.6V23.38C213.769 22.62 213.976 22.0333 214.389 21.62C214.802 21.1933 215.396 20.98 216.169 20.98H219.369V19.38C219.369 18.66 219.022 18.3 218.329 18.3H216.089L214.449 18.78L214.089 17.56ZM216.209 25.72H216.789L219.369 23.84V22.22H216.209C215.516 22.22 215.169 22.58 215.169 23.3V24.64C215.169 25.36 215.516 25.72 216.209 25.72ZM225.004 13.82V24.96C225.017 25.2933 225.084 25.5267 225.204 25.66C225.337 25.78 225.55 25.84 225.844 25.84H226.164L227.464 25.48L227.564 26.74L226.164 27.12H225.804C224.99 27.12 224.417 26.9067 224.084 26.48C223.764 26.04 223.604 25.3733 223.604 24.48V13.8L223.384 12.18L224.764 12L225.004 13.82ZM236.326 25.5L236.526 27L235.146 27.16L234.926 25.4V19.62C234.926 19.1267 234.84 18.7867 234.666 18.6C234.493 18.4 234.173 18.3 233.706 18.3H233.246L230.726 19.7V27H229.326V13.8L229.106 12.18L230.486 12L230.726 13.82V18.24L232.926 17H233.926C234.7 17 235.293 17.2133 235.706 17.64C236.12 18.0533 236.326 18.64 236.326 19.4V25.5ZM238.952 17.56L240.952 17H243.232C244.019 17 244.612 17.2133 245.012 17.64C245.426 18.0533 245.632 18.64 245.632 19.4V25.42L245.852 27L244.472 27.16L244.252 25.38L242.012 27H241.032C240.259 27 239.666 26.7933 239.252 26.38C238.839 25.9533 238.632 25.36 238.632 24.6V23.38C238.632 22.62 238.839 22.0333 239.252 21.62C239.666 21.1933 240.259 20.98 241.032 20.98H244.232V19.38C244.232 18.66 243.886 18.3 243.192 18.3H240.952L239.312 18.78L238.952 17.56ZM241.072 25.72H241.652L244.232 23.84V22.22H241.072C240.379 22.22 240.032 22.58 240.032 23.3V24.64C240.032 25.36 240.379 25.72 241.072 25.72ZM243.792 15.14H243.412C243.092 15.14 242.779 15.0333 242.472 14.82L241.632 14.2C241.499 14.0933 241.332 14.04 241.132 14.04H240.952C240.766 14.04 240.632 14.0667 240.552 14.12C240.486 14.16 240.452 14.26 240.452 14.42V14.64L240.252 15.3L239.332 14.86L239.452 14.36V14.04C239.452 13.6 239.566 13.3 239.792 13.14C240.019 12.9667 240.359 12.88 240.812 12.88H241.252C241.559 12.88 241.852 12.9733 242.132 13.16C242.186 13.2 242.266 13.2667 242.372 13.36C242.492 13.44 242.572 13.5 242.612 13.54C242.666 13.5667 242.732 13.6133 242.812 13.68C242.906 13.7333 242.972 13.7733 243.012 13.8C243.052 13.8267 243.099 13.86 243.152 13.9C243.219 13.9267 243.272 13.9467 243.312 13.96C243.366 13.9733 243.412 13.98 243.452 13.98H243.652C243.839 13.98 243.966 13.96 244.032 13.92C244.112 13.8667 244.152 13.76 244.152 13.6V13.38L244.352 12.72L245.332 13L245.152 13.66V13.98C245.152 14.42 245.039 14.7267 244.812 14.9C244.586 15.06 244.246 15.14 243.792 15.14ZM250.667 27C249.88 27 249.28 26.7933 248.867 26.38C248.467 25.9667 248.267 25.3733 248.267 24.6V19.4C248.267 18.64 248.467 18.0533 248.867 17.64C249.28 17.2133 249.88 17 250.667 17H252.567C253.354 17 253.947 17.2133 254.347 17.64C254.76 18.0533 254.967 18.64 254.967 19.4V21.48L253.867 22.46H249.667V24.64C249.667 25.36 250.014 25.72 250.707 25.72H252.807L254.427 25.24L254.787 26.46L252.807 27H250.667ZM249.667 19.38V21.18H253.287L253.567 20.96V19.38C253.567 18.66 253.22 18.3 252.527 18.3H250.707C250.014 18.3 249.667 18.66 249.667 19.38ZM260.836 18.3H259.196C258.823 18.3 258.549 18.3933 258.376 18.58C258.203 18.7533 258.116 19.0667 258.116 19.52C258.116 19.64 258.129 19.7533 258.156 19.86C258.196 19.9533 258.263 20.0533 258.356 20.16C258.463 20.2533 258.536 20.32 258.576 20.36C258.629 20.4 259.743 21.12 261.916 22.52C262.583 22.9467 262.916 23.62 262.916 24.54C262.916 26.18 262.089 27 260.436 27H258.576L256.576 26.46L256.936 25.24L258.576 25.72H260.476C261.169 25.72 261.516 25.36 261.516 24.64C261.516 24.2267 261.483 23.9667 261.416 23.86C261.349 23.74 261.203 23.6067 260.976 23.46L258.076 21.56C257.569 21.2267 257.216 20.9133 257.016 20.62C256.816 20.3267 256.716 19.94 256.716 19.46C256.716 18.6733 256.916 18.0667 257.316 17.64C257.729 17.2133 258.329 17 259.116 17H260.836L262.816 17.56L262.476 18.78L260.836 18.3Z" fill="#4361EE"/>
</g>
<g filter="url(#filter14_d)">
<path d="M110.296 48.8H115.016C115.645 48.8 116.12 48.9707 116.44 49.312C116.771 49.6427 116.936 50.112 116.936 50.72V58.08C116.936 58.6987 116.771 59.1733 116.44 59.504C116.12 59.8347 115.645 60 115.016 60H110.296V48.8ZM114.984 49.84H111.416V58.976H114.984C115.539 58.976 115.816 58.688 115.816 58.112V50.704C115.816 50.128 115.539 49.84 114.984 49.84ZM120.974 60C120.345 60 119.865 59.8347 119.534 59.504C119.214 59.1733 119.054 58.6987 119.054 58.08V53.92C119.054 53.312 119.214 52.8427 119.534 52.512C119.865 52.1707 120.345 52 120.974 52H122.494C123.123 52 123.598 52.1707 123.918 52.512C124.249 52.8427 124.414 53.312 124.414 53.92V55.584L123.534 56.368H120.174V58.112C120.174 58.688 120.451 58.976 121.006 58.976H122.686L123.982 58.592L124.27 59.568L122.686 60H120.974ZM120.174 53.904V55.344H123.07L123.294 55.168V53.904C123.294 53.328 123.017 53.04 122.462 53.04H121.006C120.451 53.04 120.174 53.328 120.174 53.904ZM129.109 53.04H127.797C127.499 53.04 127.28 53.1147 127.141 53.264C127.003 53.4027 126.933 53.6533 126.933 54.016C126.933 54.112 126.944 54.2027 126.965 54.288C126.997 54.3627 127.051 54.4427 127.125 54.528C127.211 54.6027 127.269 54.656 127.301 54.688C127.344 54.72 128.235 55.296 129.973 56.416C130.507 56.7573 130.773 57.296 130.773 58.032C130.773 59.344 130.112 60 128.789 60H127.301L125.701 59.568L125.989 58.592L127.301 58.976H128.821C129.376 58.976 129.653 58.688 129.653 58.112C129.653 57.7813 129.627 57.5733 129.573 57.488C129.52 57.392 129.403 57.2853 129.221 57.168L126.901 55.648C126.496 55.3813 126.213 55.1307 126.053 54.896C125.893 54.6613 125.813 54.352 125.813 53.968C125.813 53.3387 125.973 52.8533 126.293 52.512C126.624 52.1707 127.104 52 127.733 52H129.109L130.693 52.448L130.421 53.424L129.109 53.04ZM134.38 60C133.751 60 133.271 59.8347 132.94 59.504C132.62 59.1733 132.46 58.6987 132.46 58.08V53.92C132.46 53.312 132.62 52.8427 132.94 52.512C133.271 52.1707 133.751 52 134.38 52H135.9C136.53 52 137.004 52.1707 137.324 52.512C137.655 52.8427 137.82 53.312 137.82 53.92V55.584L136.94 56.368H133.58V58.112C133.58 58.688 133.858 58.976 134.412 58.976H136.092L137.388 58.592L137.676 59.568L136.092 60H134.38ZM133.58 53.904V55.344H136.476L136.7 55.168V53.904C136.7 53.328 136.423 53.04 135.868 53.04H134.412C133.858 53.04 133.58 53.328 133.58 53.904ZM145.252 58.784L145.412 60L144.308 60.128L144.132 58.72V53.904C144.132 53.328 143.854 53.04 143.3 53.04H142.788L140.772 54.16V60H139.652V53.328L139.492 52.032L140.58 51.888L140.724 53.024L142.532 52H143.332C143.95 52 144.425 52.1707 144.756 52.512C145.086 52.8427 145.252 53.312 145.252 53.92V58.784ZM152.391 53.296L150.263 60H149.175L146.647 52H147.767L149.287 56.96L149.687 58.656H149.751L150.135 56.96C150.647 55.2747 151.036 54.0107 151.303 53.168L151.463 51.888L152.551 52.032L152.391 53.296ZM157.671 53.04H155.975C155.42 53.04 155.143 53.328 155.143 53.904V58.112C155.143 58.688 155.42 58.976 155.975 58.976H157.671C158.226 58.976 158.503 58.688 158.503 58.112V53.904C158.503 53.328 158.226 53.04 157.671 53.04ZM157.703 60H155.943C155.314 60 154.834 59.8347 154.503 59.504C154.183 59.1733 154.023 58.6987 154.023 58.08V53.92C154.023 53.312 154.183 52.8427 154.503 52.512C154.834 52.1707 155.314 52 155.943 52H157.703C158.332 52 158.807 52.1707 159.127 52.512C159.458 52.8427 159.623 53.312 159.623 53.92V58.08C159.623 58.6987 159.458 59.1733 159.127 59.504C158.807 59.8347 158.332 60 157.703 60ZM162.85 49.456V58.368C162.86 58.6347 162.914 58.8213 163.01 58.928C163.116 59.024 163.287 59.072 163.522 59.072H163.778L164.818 58.784L164.898 59.792L163.778 60.096H163.49C162.839 60.096 162.38 59.9253 162.114 59.584C161.858 59.232 161.73 58.6987 161.73 57.984V49.44L161.554 48.144L162.658 48L162.85 49.456ZM171.172 53.296L169.044 60H167.956L165.428 52H166.548L168.068 56.96L168.468 58.656H168.532L168.916 56.96C169.428 55.2747 169.817 54.0107 170.084 53.168L170.244 51.888L171.332 52.032L171.172 53.296ZM174.724 60C174.095 60 173.615 59.8347 173.284 59.504C172.964 59.1733 172.804 58.6987 172.804 58.08V53.92C172.804 53.312 172.964 52.8427 173.284 52.512C173.615 52.1707 174.095 52 174.724 52H176.244C176.873 52 177.348 52.1707 177.668 52.512C177.999 52.8427 178.164 53.312 178.164 53.92V55.584L177.284 56.368H173.924V58.112C173.924 58.688 174.201 58.976 174.756 58.976H176.436L177.732 58.592L178.02 59.568L176.436 60H174.724ZM173.924 53.904V55.344H176.82L177.044 55.168V53.904C177.044 53.328 176.767 53.04 176.212 53.04H174.756C174.201 53.04 173.924 53.328 173.924 53.904ZM182.203 58.976L184.235 57.856V53.392L182.411 53.04H181.691C181.137 53.04 180.859 53.328 180.859 53.904V58.112C180.859 58.688 181.137 58.976 181.691 58.976H182.203ZM184.235 49.44L184.059 48.112L185.163 47.968L185.355 49.44V58.752L185.515 60.016L184.427 60.144L184.267 58.976L182.459 60H181.659C181.041 60 180.566 59.8347 180.235 59.504C179.905 59.1627 179.739 58.688 179.739 58.08V53.92C179.739 53.312 179.905 52.8427 180.235 52.512C180.566 52.1707 181.041 52 181.659 52H182.411L184.235 52.352V49.44ZM191.202 53.04H189.506C188.951 53.04 188.674 53.328 188.674 53.904V58.112C188.674 58.688 188.951 58.976 189.506 58.976H191.202C191.757 58.976 192.034 58.688 192.034 58.112V53.904C192.034 53.328 191.757 53.04 191.202 53.04ZM191.234 60H189.474C188.845 60 188.365 59.8347 188.034 59.504C187.714 59.1733 187.554 58.6987 187.554 58.08V53.92C187.554 53.312 187.714 52.8427 188.034 52.512C188.365 52.1707 188.845 52 189.474 52H191.234C191.863 52 192.338 52.1707 192.658 52.512C192.989 52.8427 193.154 53.312 193.154 53.92V58.08C193.154 58.6987 192.989 59.1733 192.658 59.504C192.338 59.8347 191.863 60 191.234 60ZM198.941 52V53.184L198.397 53.152L196.381 54.032V60H195.261V53.328L195.101 52.032L196.141 51.888L196.317 53.04L198.141 52H198.941ZM204.265 48.8H209.689V49.84H205.385V53.616H208.889V54.656H205.385V60H204.265V48.8ZM211.402 53.296L211.242 52.032L212.33 51.888L212.522 53.36V58.112C212.522 58.688 212.799 58.976 213.354 58.976H213.818L215.882 57.632V52H217.002V58.736L217.162 60L216.074 60.128L215.898 58.864L214.106 60H213.322C212.692 60 212.212 59.8347 211.882 59.504C211.562 59.1733 211.402 58.6987 211.402 58.08V53.296ZM220.397 49.456V58.368C220.407 58.6347 220.461 58.8213 220.557 58.928C220.663 59.024 220.834 59.072 221.069 59.072H221.325L222.365 58.784L222.445 59.792L221.325 60.096H221.037C220.386 60.096 219.927 59.9253 219.661 59.584C219.405 59.232 219.277 58.6987 219.277 57.984V49.44L219.101 48.144L220.205 48L220.397 49.456ZM224.975 49.456V58.368C224.985 58.6347 225.039 58.8213 225.135 58.928C225.241 59.024 225.412 59.072 225.647 59.072H225.903L226.943 58.784L227.023 59.792L225.903 60.096H225.615C224.964 60.096 224.505 59.9253 224.239 59.584C223.983 59.232 223.855 58.6987 223.855 57.984V49.44L223.679 48.144L224.783 48L224.975 49.456ZM233.457 56.128H228.513V55.152H233.457V56.128ZM236.88 60L235.296 59.568L235.568 58.592L236.88 58.976H239.792C240.069 58.976 240.288 58.896 240.448 58.736C240.619 58.5653 240.704 58.3307 240.704 58.032V57.152C240.704 56.8533 240.677 56.6453 240.624 56.528C240.571 56.4107 240.421 56.2667 240.176 56.096L236.352 53.424C235.733 52.9867 235.424 52.416 235.424 51.712V50.8C235.424 50.192 235.6 49.7067 235.952 49.344C236.315 48.9813 236.805 48.8 237.424 48.8H239.952L241.536 49.248L241.264 50.224L239.952 49.84H237.456C237.179 49.84 236.955 49.92 236.784 50.08C236.624 50.24 236.544 50.4747 236.544 50.784V51.584C236.544 51.8613 236.576 52.064 236.64 52.192C236.704 52.32 236.848 52.464 237.072 52.624L240.944 55.328C241.531 55.7333 241.824 56.2933 241.824 57.008V58C241.824 58.6187 241.648 59.1093 241.296 59.472C240.944 59.824 240.453 60 239.824 60H236.88ZM246.147 60.048C245.326 60.016 244.782 59.8347 244.515 59.504C244.259 59.1733 244.131 58.528 244.131 57.568V53.056H242.723V52.16L244.131 52V51.264L244.019 50.368L245.091 50.032L245.251 51.312V52H247.395V53.056H245.251V58.112C245.251 58.5067 245.299 58.7573 245.395 58.864C245.502 58.96 245.721 59.008 246.051 59.008L247.251 58.688L247.523 59.664L246.147 60.048ZM248.868 52.448L250.468 52H252.292C252.921 52 253.396 52.1707 253.716 52.512C254.047 52.8427 254.212 53.312 254.212 53.92V58.736L254.388 60L253.284 60.128L253.108 58.704L251.316 60H250.532C249.913 60 249.439 59.8347 249.108 59.504C248.777 59.1627 248.612 58.688 248.612 58.08V57.104C248.612 56.496 248.777 56.0267 249.108 55.696C249.439 55.3547 249.913 55.184 250.532 55.184H253.092V53.904C253.092 53.328 252.815 53.04 252.26 53.04H250.468L249.156 53.424L248.868 52.448ZM250.564 58.976H251.028L253.092 57.472V56.176H250.564C250.009 56.176 249.732 56.464 249.732 57.04V58.112C249.732 58.688 250.009 58.976 250.564 58.976ZM258.24 52H260L261.584 52.448L261.312 53.424L260 53.04H258.272C257.717 53.04 257.44 53.328 257.44 53.904V58.112C257.44 58.688 257.717 58.976 258.272 58.976H260.08L261.392 58.592L261.664 59.568L260.08 60H258.24C257.61 60 257.13 59.8347 256.8 59.504C256.48 59.1733 256.32 58.6987 256.32 58.08V53.92C256.32 53.312 256.48 52.8427 256.8 52.512C257.13 52.1707 257.61 52 258.24 52ZM263.12 49.456L262.944 48.144L264.048 48L264.24 49.456V55.248L265.456 54.928L266.784 53.104L267.472 51.872L268.672 52.032L267.904 53.296L266.128 55.696L268.976 60H267.68L265.12 56.144L264.24 56.384V60H263.12V49.456Z" fill="#4361EE"/>
</g>
<g filter="url(#filter15_d)">
<line x1="18.334" y1="1.36646" x2="6.36647" y2="8.29505" stroke="#4361EE" stroke-opacity="0.95" stroke-width="2" stroke-linecap="round"/>
</g>
<g filter="url(#filter16_d)">
<line x1="1" y1="-1" x2="15.0287" y2="-1" transform="matrix(0.86902 0.494777 0.507321 -0.861757 305.519 51)" stroke="#4361EE" stroke-opacity="0.95" stroke-width="2" stroke-linecap="round"/>
</g>
<g filter="url(#filter17_d)">
<line x1="18.3058" y1="14.9604" x2="6.14039" y2="8.56028" stroke="#4361EE" stroke-opacity="0.95" stroke-width="2" stroke-linecap="round"/>
</g>
<g filter="url(#filter18_d)">
<line x1="299.191" y1="65.3433" x2="301.597" y2="51.8095" stroke="#4361EE" stroke-opacity="0.95" stroke-width="2" stroke-linecap="round"/>
</g>
<g filter="url(#filter19_d)">
<line x1="1" y1="-1" x2="14.9544" y2="-1" transform="matrix(0.88817 -0.459515 -0.471704 -0.881757 304.326 65.541)" stroke="#4361EE" stroke-opacity="0.95" stroke-width="2" stroke-linecap="round"/>
</g>
<defs>
<filter id="filter0_d" x="33.3878" y="3.02722" width="9.22626" height="62.406" filterUnits="userSpaceOnUse" color-interpolation-filters="sRGB">
<feFlood flood-opacity="0" result="BackgroundImageFix"/>
<feColorMatrix in="SourceAlpha" type="matrix" values="0 0 0 0 0 0 0 0 0 0 0 0 0 0 0 0 0 0 127 0"/>
<feOffset dy="4"/>
<feGaussianBlur stdDeviation="2"/>
<feColorMatrix type="matrix" values="0 0 0 0 0 0 0 0 0 0 0 0 0 0 0 0 0 0 1 0"/>
<feBlend mode="normal" in2="BackgroundImageFix" result="effect1_dropShadow"/>
<feBlend mode="normal" in="SourceGraphic" in2="effect1_dropShadow" result="shape"/>
</filter>
<filter id="filter1_d" x="33.6086" y="3.00571" width="34.527" height="35.9712" filterUnits="userSpaceOnUse" color-interpolation-filters="sRGB">
<feFlood flood-opacity="0" result="BackgroundImageFix"/>
<feColorMatrix in="SourceAlpha" type="matrix" values="0 0 0 0 0 0 0 0 0 0 0 0 0 0 0 0 0 0 127 0"/>
<feOffset dy="4"/>
<feGaussianBlur stdDeviation="2"/>
<feColorMatrix type="matrix" values="0 0 0 0 0 0 0 0 0 0 0 0 0 0 0 0 0 0 1 0"/>
<feBlend mode="normal" in2="BackgroundImageFix" result="effect1_dropShadow"/>
<feBlend mode="normal" in="SourceGraphic" in2="effect1_dropShadow" result="shape"/>
</filter>
<filter id="filter2_d" x="63.2749" y="3.04751" width="27.8991" height="31.2995" filterUnits="userSpaceOnUse" color-interpolation-filters="sRGB">
<feFlood flood-opacity="0" result="BackgroundImageFix"/>
<feColorMatrix in="SourceAlpha" type="matrix" values="0 0 0 0 0 0 0 0 0 0 0 0 0 0 0 0 0 0 127 0"/>
<feOffset dy="4"/>
<feGaussianBlur stdDeviation="2"/>
<feColorMatrix type="matrix" values="0 0 0 0 0 0 0 0 0 0 0 0 0 0 0 0 0 0 1 0"/>
<feBlend mode="normal" in2="BackgroundImageFix" result="effect1_dropShadow"/>
<feBlend mode="normal" in="SourceGraphic" in2="effect1_dropShadow" result="shape"/>
</filter>
<filter id="filter3_d" x="83" y="3" width="9" height="62" filterUnits="userSpaceOnUse" color-interpolation-filters="sRGB">
<feFlood flood-opacity="0" result="BackgroundImageFix"/>
<feColorMatrix in="SourceAlpha" type="matrix" values="0 0 0 0 0 0 0 0 0 0 0 0 0 0 0 0 0 0 127 0"/>
<feOffset dy="4"/>
<feGaussianBlur stdDeviation="2"/>
<feColorMatrix type="matrix" values="0 0 0 0 0 0 0 0 0 0 0 0 0 0 0 0 0 0 1 0"/>
<feBlend mode="normal" in2="BackgroundImageFix" result="effect1_dropShadow"/>
<feBlend mode="normal" in="SourceGraphic" in2="effect1_dropShadow" result="shape"/>
</filter>
<filter id="filter4_d" x="37" y="49" width="9" height="29" filterUnits="userSpaceOnUse" color-interpolation-filters="sRGB">
<feFlood flood-opacity="0" result="BackgroundImageFix"/>
<feColorMatrix in="SourceAlpha" type="matrix" values="0 0 0 0 0 0 0 0 0 0 0 0 0 0 0 0 0 0 127 0"/>
<feOffset dy="4"/>
<feGaussianBlur stdDeviation="2"/>
<feColorMatrix type="matrix" values="0 0 0 0 0 0 0 0 0 0 0 0 0 0 0 0 0 0 1 0"/>
<feBlend mode="normal" in2="BackgroundImageFix" result="effect1_dropShadow"/>
<feBlend mode="normal" in="SourceGraphic" in2="effect1_dropShadow" result="shape"/>
</filter>
<filter id="filter5_d" x="37" y="20" width="9" height="29" filterUnits="userSpaceOnUse" color-interpolation-filters="sRGB">
<feFlood flood-opacity="0" result="BackgroundImageFix"/>
<feColorMatrix in="SourceAlpha" type="matrix" values="0 0 0 0 0 0 0 0 0 0 0 0 0 0 0 0 0 0 127 0"/>
<feOffset dy="4"/>
<feGaussianBlur stdDeviation="2"/>
<feColorMatrix type="matrix" values="0 0 0 0 0 0 0 0 0 0 0 0 0 0 0 0 0 0 1 0"/>
<feBlend mode="normal" in2="BackgroundImageFix" result="effect1_dropShadow"/>
<feBlend mode="normal" in="SourceGraphic" in2="effect1_dropShadow" result="shape"/>
</filter>
<filter id="filter6_d" x="36.9211" y="13.0937" width="31.2149" height="32.4973" filterUnits="userSpaceOnUse" color-interpolation-filters="sRGB">
<feFlood flood-opacity="0" result="BackgroundImageFix"/>
<feColorMatrix in="SourceAlpha" type="matrix" values="0 0 0 0 0 0 0 0 0 0 0 0 0 0 0 0 0 0 127 0"/>
<feOffset dy="4"/>
<feGaussianBlur stdDeviation="2"/>
<feColorMatrix type="matrix" values="0 0 0 0 0 0 0 0 0 0 0 0 0 0 0 0 0 0 1 0"/>
<feBlend mode="normal" in2="BackgroundImageFix" result="effect1_dropShadow"/>
<feBlend mode="normal" in="SourceGraphic" in2="effect1_dropShadow" result="shape"/>
</filter>
<filter id="filter7_d" x="63.2776" y="14.4547" width="23.9736" height="26.5065" filterUnits="userSpaceOnUse" color-interpolation-filters="sRGB">
<feFlood flood-opacity="0" result="BackgroundImageFix"/>
<feColorMatrix in="SourceAlpha" type="matrix" values="0 0 0 0 0 0 0 0 0 0 0 0 0 0 0 0 0 0 127 0"/>
<feOffset dy="4"/>
<feGaussianBlur stdDeviation="2"/>
<feColorMatrix type="matrix" values="0 0 0 0 0 0 0 0 0 0 0 0 0 0 0 0 0 0 1 0"/>
<feBlend mode="normal" in2="BackgroundImageFix" result="effect1_dropShadow"/>
<feBlend mode="normal" in="SourceGraphic" in2="effect1_dropShadow" result="shape"/>
</filter>
<filter id="filter8_d" x="78" y="35" width="9" height="43" filterUnits="userSpaceOnUse" color-interpolation-filters="sRGB">
<feFlood flood-opacity="0" result="BackgroundImageFix"/>
<feColorMatrix in="SourceAlpha" type="matrix" values="0 0 0 0 0 0 0 0 0 0 0 0 0 0 0 0 0 0 127 0"/>
<feOffset dy="4"/>
<feGaussianBlur stdDeviation="2"/>
<feColorMatrix type="matrix" values="0 0 0 0 0 0 0 0 0 0 0 0 0 0 0 0 0 0 1 0"/>
<feBlend mode="normal" in2="BackgroundImageFix" result="effect1_dropShadow"/>
<feBlend mode="normal" in="SourceGraphic" in2="effect1_dropShadow" result="shape"/>
</filter>
<filter id="filter9_d" x="78" y="20" width="9" height="18" filterUnits="userSpaceOnUse" color-interpolation-filters="sRGB">
<feFlood flood-opacity="0" result="BackgroundImageFix"/>
<feColorMatrix in="SourceAlpha" type="matrix" values="0 0 0 0 0 0 0 0 0 0 0 0 0 0 0 0 0 0 127 0"/>
<feOffset dy="4"/>
<feGaussianBlur stdDeviation="2"/>
<feColorMatrix type="matrix" values="0 0 0 0 0 0 0 0 0 0 0 0 0 0 0 0 0 0 1 0"/>
<feBlend mode="normal" in2="BackgroundImageFix" result="effect1_dropShadow"/>
<feBlend mode="normal" in="SourceGraphic" in2="effect1_dropShadow" result="shape"/>
</filter>
<filter id="filter10_d" x="26.0717" y="51.901" width="15.5369" height="19.6775" filterUnits="userSpaceOnUse" color-interpolation-filters="sRGB">
<feFlood flood-opacity="0" result="BackgroundImageFix"/>
<feColorMatrix in="SourceAlpha" type="matrix" values="0 0 0 0 0 0 0 0 0 0 0 0 0 0 0 0 0 0 127 0"/>
<feOffset dy="4"/>
<feGaussianBlur stdDeviation="2"/>
<feColorMatrix type="matrix" values="0 0 0 0 0 0 0 0 0 0 0 0 0 0 0 0 0 0 1 0"/>
<feBlend mode="normal" in2="BackgroundImageFix" result="effect1_dropShadow"/>
<feBlend mode="normal" in="SourceGraphic" in2="effect1_dropShadow" result="shape"/>
</filter>
<filter id="filter11_d" x="82.4302" y="52.9395" width="15.4349" height="19.8304" filterUnits="userSpaceOnUse" color-interpolation-filters="sRGB">
<feFlood flood-opacity="0" result="BackgroundImageFix"/>
<feColorMatrix in="SourceAlpha" type="matrix" values="0 0 0 0 0 0 0 0 0 0 0 0 0 0 0 0 0 0 127 0"/>
<feOffset dy="4"/>
<feGaussianBlur stdDeviation="2"/>
<feColorMatrix type="matrix" values="0 0 0 0 0 0 0 0 0 0 0 0 0 0 0 0 0 0 1 0"/>
<feBlend mode="normal" in2="BackgroundImageFix" result="effect1_dropShadow"/>
<feBlend mode="normal" in="SourceGraphic" in2="effect1_dropShadow" result="shape"/>
</filter>
<filter id="filter12_d" x="103" y="36" width="58" height="9" filterUnits="userSpaceOnUse" color-interpolation-filters="sRGB">
<feFlood flood-opacity="0" result="BackgroundImageFix"/>
<feColorMatrix in="SourceAlpha" type="matrix" values="0 0 0 0 0 0 0 0 0 0 0 0 0 0 0 0 0 0 127 0"/>
<feOffset dy="4"/>
<feGaussianBlur stdDeviation="2"/>
<feColorMatrix type="matrix" values="0 0 0 0 0 0 0 0 0 0 0 0 0 0 0 0 0 0 1 0"/>
<feBlend mode="normal" in2="BackgroundImageFix" result="effect1_dropShadow"/>
<feBlend mode="normal" in="SourceGraphic" in2="effect1_dropShadow" result="shape"/>
</filter>
<filter id="filter13_d" x="106.62" y="12" width="160.296" height="27.6" filterUnits="userSpaceOnUse" color-interpolation-filters="sRGB">
<feFlood flood-opacity="0" result="BackgroundImageFix"/>
<feColorMatrix in="SourceAlpha" type="matrix" values="0 0 0 0 0 0 0 0 0 0 0 0 0 0 0 0 0 0 127 0"/>
<feOffset dy="4"/>
<feGaussianBlur stdDeviation="2"/>
<feColorMatrix type="matrix" values="0 0 0 0 0 0 0 0 0 0 0 0 0 0 0 0 0 0 1 0"/>
<feBlend mode="normal" in2="BackgroundImageFix" result="effect1_dropShadow"/>
<feBlend mode="normal" in="SourceGraphic" in2="effect1_dropShadow" result="shape"/>
</filter>
<filter id="filter14_d" x="106.296" y="47.968" width="166.68" height="20.176" filterUnits="userSpaceOnUse" color-interpolation-filters="sRGB">
<feFlood flood-opacity="0" result="BackgroundImageFix"/>
<feColorMatrix in="SourceAlpha" type="matrix" values="0 0 0 0 0 0 0 0 0 0 0 0 0 0 0 0 0 0 127 0"/>
<feOffset dy="4"/>
<feGaussianBlur stdDeviation="2"/>
<feColorMatrix type="matrix" values="0 0 0 0 0 0 0 0 0 0 0 0 0 0 0 0 0 0 1 0"/>
<feBlend mode="normal" in2="BackgroundImageFix" result="effect1_dropShadow"/>
<feBlend mode="normal" in="SourceGraphic" in2="effect1_dropShadow" result="shape"/>
</filter>
<filter id="filter15_d" x="1" y="0" width="22.7005" height="17.6615" filterUnits="userSpaceOnUse" color-interpolation-filters="sRGB">
<feFlood flood-opacity="0" result="BackgroundImageFix"/>
<feColorMatrix in="SourceAlpha" type="matrix" values="0 0 0 0 0 0 0 0 0 0 0 0 0 0 0 0 0 0 127 0"/>
<feOffset dy="4"/>
<feGaussianBlur stdDeviation="2"/>
<feColorMatrix type="matrix" values="0 0 0 0 0 0 0 0 0 0 0 0 0 0 0 0 0 0 1 0"/>
<feBlend mode="normal" in2="BackgroundImageFix" result="effect1_dropShadow"/>
<feBlend mode="normal" in="SourceGraphic" in2="effect1_dropShadow" result="shape"/>
</filter>
<filter id="filter16_d" x="300.874" y="51.3627" width="22.2041" height="16.9288" filterUnits="userSpaceOnUse" color-interpolation-filters="sRGB">
<feFlood flood-opacity="0" result="BackgroundImageFix"/>
<feColorMatrix in="SourceAlpha" type="matrix" values="0 0 0 0 0 0 0 0 0 0 0 0 0 0 0 0 0 0 127 0"/>
<feOffset dy="4"/>
<feGaussianBlur stdDeviation="2"/>
<feColorMatrix type="matrix" values="0 0 0 0 0 0 0 0 0 0 0 0 0 0 0 0 0 0 1 0"/>
<feBlend mode="normal" in2="BackgroundImageFix" result="effect1_dropShadow"/>
<feBlend mode="normal" in="SourceGraphic" in2="effect1_dropShadow" result="shape"/>
</filter>
<filter id="filter17_d" x="0.789795" y="7.20969" width="22.8666" height="17.1013" filterUnits="userSpaceOnUse" color-interpolation-filters="sRGB">
<feFlood flood-opacity="0" result="BackgroundImageFix"/>
<feColorMatrix in="SourceAlpha" type="matrix" values="0 0 0 0 0 0 0 0 0 0 0 0 0 0 0 0 0 0 127 0"/>
<feOffset dy="4"/>
<feGaussianBlur stdDeviation="2"/>
<feColorMatrix type="matrix" values="0 0 0 0 0 0 0 0 0 0 0 0 0 0 0 0 0 0 1 0"/>
<feBlend mode="normal" in2="BackgroundImageFix" result="effect1_dropShadow"/>
<feBlend mode="normal" in="SourceGraphic" in2="effect1_dropShadow" result="shape"/>
</filter>
<filter id="filter18_d" x="294.031" y="50.6498" width="12.726" height="23.8531" filterUnits="userSpaceOnUse" color-interpolation-filters="sRGB">
<feFlood flood-opacity="0" result="BackgroundImageFix"/>
<feColorMatrix in="SourceAlpha" type="matrix" values="0 0 0 0 0 0 0 0 0 0 0 0 0 0 0 0 0 0 127 0"/>
<feOffset dy="4"/>
<feGaussianBlur stdDeviation="2"/>
<feColorMatrix type="matrix" values="0 0 0 0 0 0 0 0 0 0 0 0 0 0 0 0 0 0 1 0"/>
<feBlend mode="normal" in2="BackgroundImageFix" result="effect1_dropShadow"/>
<feBlend mode="normal" in="SourceGraphic" in2="effect1_dropShadow" result="shape"/>
</filter>
<filter id="filter19_d" x="300.68" y="58.5564" width="22.4056" height="16.4013" filterUnits="userSpaceOnUse" color-interpolation-filters="sRGB">
<feFlood flood-opacity="0" result="BackgroundImageFix"/>
<feColorMatrix in="SourceAlpha" type="matrix" values="0 0 0 0 0 0 0 0 0 0 0 0 0 0 0 0 0 0 127 0"/>
<feOffset dy="4"/>
<feGaussianBlur stdDeviation="2"/>
<feColorMatrix type="matrix" values="0 0 0 0 0 0 0 0 0 0 0 0 0 0 0 0 0 0 1 0"/>
<feBlend mode="normal" in2="BackgroundImageFix" result="effect1_dropShadow"/>
<feBlend mode="normal" in="SourceGraphic" in2="effect1_dropShadow" result="shape"/>
</filter>
</defs>
</svg>
